Coordinates
version=1
nRows=12
nColumns=46
inDegrees=yes

Units are S.I. units (second, meters, Newtons, ...)
Angles are in degrees.

endheader
time	pelvis_tilt	pelvis_list	pelvis_rotation	pelvis_tx	pelvis_ty	pelvis_tz	bb_angle	bb_tx	bb_ty	bb_tz	hip_flexion_r	hip_adduction_r	hip_rotation_r	knee_angle_r	knee_angle_r_beta	ankle_angle_r	subtalar_angle_r	mtp_angle_r	crank_angle_r	hip_flexion_l	hip_adduction_l	hip_rotation_l	knee_angle_l	knee_angle_l_beta	ankle_angle_l	subtalar_angle_l	mtp_angle_l	crank_angle_l	lumbar_extension	lumbar_bending	lumbar_rotation	arm_flex_r	arm_add_r	arm_rot_r	elbow_flex_r	pro_sup_r	wrist_flex_r	wrist_dev_r	arm_flex_l	arm_add_l	arm_rot_l	elbow_flex_l	pro_sup_l	wrist_flex_l	wrist_dev_l
      5.00000000	    -12.60640243	     -3.06850602	     -3.13610860	      0.12187015	      1.13414634	     -0.25406863	      0.00000000	      0.50000000	      0.00000000	      0.25000000	     73.47428813	      4.11672271	      9.82981294	    106.88489773	      1.86549339	      1.82547435	     -7.37976765	      0.00000000	      0.00000000	     36.68797878	     -7.63270337	     -2.73522815	     20.09916685	      0.35079664	    -11.99766021	      4.09601339	      0.00000000	      0.00000000	    -62.51330812	      1.78271548	      3.04148805	     89.63814767	    -16.52505545	     42.91123747	     54.78942349	     42.35639605	      0.00000000	      0.00000000	     88.65960478	    -17.79415350	     42.44941663	     50.62707707	     34.36041958	      0.00000000	      0.00000000
      5.00500000	    -12.75647586	     -3.23003424	     -3.70035302	      0.12159044	      1.13421830	     -0.25466619	      0.00000000	      0.50000000	      0.00000000	      0.25000000	     74.79881659	      4.38641514	      9.75814328	    107.56905850	      1.87743424	      2.79379064	     -6.69997796	      0.00000000	      0.00000000	     35.40648295	     -8.18711695	     -4.23571259	     18.48820527	      0.32268005	    -13.11563183	      5.70179710	      0.00000000	      0.00000000	    -62.52117398	      1.87334940	      4.00864161	     89.65896857	    -16.80601337	     42.77596247	     55.47131271	     42.11377497	      0.00000000	      0.00000000	     88.64784713	    -17.40750010	     42.28996941	     50.20380067	     34.47360705	      0.00000000	      0.00000000
      5.01000000	    -12.86512751	     -3.37924562	     -4.44778459	      0.12133551	      1.13454608	     -0.25430144	      0.00000000	      0.50000000	      0.00000000	      0.25000000	     76.06130925	      4.91416899	      9.70750889	    108.07945726	      1.88634238	      3.63751535	     -6.09510372	      0.00000000	      0.00000000	     34.06329237	     -8.87599280	     -6.07451148	     16.98270042	      0.29640404	    -14.10957314	      7.51724555	      0.00000000	      0.00000000	    -62.60035440	      1.71805971	      5.02338476	     89.67784070	    -17.00212207	     42.47081226	     55.96010629	     41.82644700	      0.00000000	      0.00000000	     88.65036000	    -17.04137446	     42.10069213	     49.78344687	     34.56541415	      0.00000000	      0.00000000
      5.01500000	    -13.01124602	     -3.45843169	     -5.17338689	      0.12105669	      1.13476872	     -0.25410818	      0.00000000	      0.50000000	      0.00000000	      0.25000000	     77.29078118	      5.40969221	      9.73534386	    108.44587323	      1.89273755	      4.43755700	     -5.39784911	      0.00000000	      0.00000000	     32.96924132	     -9.49835044	     -8.09546144	     15.96628226	      0.27866419	    -14.80882051	      9.46930700	      0.00000000	      0.00000000	    -62.61692429	      1.56754267	      5.96561241	     89.69240427	    -16.90626043	     42.02002582	     56.28101517	     41.50490344	      0.00000000	      0.00000000	     88.63873042	    -16.70049816	     41.82108717	     49.38522881	     34.63921106	      0.00000000	      0.00000000
      5.02000000	    -13.39962295	     -3.70461652	     -5.57830132	      0.12049018	      1.13463914	     -0.25431575	      0.00000000	      0.50000000	      0.00000000	      0.25000000	     78.72729488	      5.61176171	      9.40199064	    108.61606092	      1.89570788	      5.09258870	     -5.09934683	      0.00000000	      0.00000000	     32.26453890	     -9.97425710	     -9.18784831	     15.02711296	      0.26227260	    -15.58177306	     10.52238150	      0.00000000	      0.00000000	    -62.44006045	      1.83920976	      6.66934691	     89.70608115	    -16.67000229	     41.88883514	     56.62150044	     41.43977371	      0.00000000	      0.00000000	     88.60365351	    -16.73538834	     41.67679340	     49.20728721	     34.64874499	      0.00000000	      0.00000000
      5.02500000	    -13.57818092	     -3.83198314	     -6.37399510	      0.12041503	      1.13488109	     -0.25350219	      0.00000000	      0.50000000	      0.00000000	      0.25000000	     79.86524310	      6.15291031	      9.21335333	    108.67699823	      1.89677144	      5.84701211	     -4.48773161	      0.00000000	      0.00000000	     31.40107364	    -10.69974510	    -11.55560772	     14.59941213	      0.25480781	    -15.67510311	     12.67372711	      0.00000000	      0.00000000	    -62.50490104	      1.53441344	      7.65716692	     89.71454839	    -17.14488774	     41.78855670	     57.55565947	     41.00043449	      0.00000000	      0.00000000	     88.60197402	    -16.19816235	     41.06352930	     48.80769078	     34.81256639	      0.00000000	      0.00000000
      5.03000000	    -14.10678232	     -3.95008746	     -6.81867274	      0.12001349	      1.13473324	     -0.25363093	      0.00000000	      0.50000000	      0.00000000	      0.25000000	     81.25548555	      6.27912609	      8.91892789	    108.53285241	      1.89425562	      6.68443660	     -4.06342132	      0.00000000	      0.00000000	     31.03751027	    -11.03628691	    -12.69694182	     14.20277475	      0.24788518	    -15.97288014	     13.21537916	      0.00000000	      0.00000000	    -62.21715149	      1.68150932	      8.28760111	     89.72447082	    -17.06717252	     41.62650472	     57.93994812	     40.87636959	      0.00000000	      0.00000000	     88.55362011	    -16.22372220	     40.90073185	     48.72591861	     34.86775941	      0.00000000	      0.00000000
      5.03500000	    -14.43989852	     -4.05697767	     -7.14326296	      0.11925910	      1.13462695	     -0.25328570	      0.00000000	      0.50000000	      0.00000000	      0.25000000	     82.35799267	      6.36303556	      8.62853621	    108.34705463	      1.89101284	      7.83005022	     -3.47248052	      0.00000000	      0.00000000	     30.79503640	    -11.43495145	    -14.03444405	     14.45546049	      0.25229538	    -15.71340937	     14.19380241	      0.00000000	      0.00000000	    -62.12953000	      1.76854979	      8.79902069	     89.72652063	    -17.16266790	     41.39512027	     58.63595257	     40.60628190	      0.00000000	      0.00000000	     88.56921902	    -16.16697707	     40.58784329	     48.71992055	     35.01536005	      0.00000000	      0.00000000
      5.04000000	    -14.88048527	     -4.15396901	     -7.43816326	      0.11850586	      1.13468357	     -0.25310302	      0.00000000	      0.50000000	      0.00000000	      0.25000000	     83.43310648	      6.34617550	      8.23964555	    107.96822490	      1.88440101	      8.96902281	     -3.09299916	      0.00000000	      0.00000000	     30.72830045	    -11.74986490	    -14.99127942	     14.78287341	      0.25800981	    -15.61011274	     14.46472929	      0.00000000	      0.00000000	    -61.97949855	      1.93438239	      9.19636167	     89.73431924	    -17.13345868	     41.30484342	     59.23525045	     40.47405788	      0.00000000	      0.00000000	     88.58878005	    -16.32957550	     40.33665372	     48.71877700	     35.10018084	      0.00000000	      0.00000000
      5.04500000	    -15.28019483	     -4.20677120	     -7.71272789	      0.11782216	      1.13487234	     -0.25277929	      0.00000000	      0.50000000	      0.00000000	      0.25000000	     84.29051637	      6.29108555	      7.85940261	    107.40639748	      1.87459527	     10.29937203	     -2.79048013	      0.00000000	      0.00000000	     30.78066026	    -12.03910221	    -15.89419099	     15.42428511	      0.26920456	    -15.33284568	     14.47660122	      0.00000000	      0.00000000	    -61.87647829	      2.02427719	      9.47408061	     89.73827501	    -17.11562709	     41.18709160	     59.82554213	     40.36860755	      0.00000000	      0.00000000	     88.61521862	    -16.52600124	     40.09466054	     48.82158808	     35.18888383	      0.00000000	      0.00000000
      5.05000000	    -15.65426822	     -4.36594378	     -7.90921931	      0.11701429	      1.13518736	     -0.25221630	      0.00000000	      0.50000000	      0.00000000	      0.25000000	     84.90383785	      6.23231605	      7.35860343	    106.67225391	      1.86178205	     11.78904894	     -2.44959665	      0.00000000	      0.00000000	     31.05882758	    -12.48731011	    -16.56124778	     16.49824794	      0.28794875	    -14.91441377	     14.53520557	      0.00000000	      0.00000000	    -61.84963960	      2.19746880	      9.78998135	     89.74031765	    -17.21478405	     41.07897536	     60.62199000	     40.19906807	      0.00000000	      0.00000000	     88.63077656	    -16.80402546	     39.76749752	     49.14444957	     35.35219878	      0.00000000	      0.00000000
      5.05500000	    -15.99245382	     -4.49502612	     -8.16105044	      0.11635769	      1.13579144	     -0.25154097	      0.00000000	      0.50000000	      0.00000000	      0.25000000	     85.21953865	      6.25184463	      6.88372172	    105.66192120	      1.84414842	     13.46641535	     -2.33868598	      0.00000000	      0.00000000	     31.36422213	    -12.87624567	    -16.93156050	     17.67605239	      0.30850531	    -14.64308032	     13.79008516	      0.00000000	      0.00000000	    -61.88339853	      2.26799433	     10.01313447	     89.74482559	    -17.24742688	     41.01294957	     61.37542402	     40.07666784	      0.00000000	      0.00000000	     88.66462635	    -17.12525834	     39.41776794	     49.38963353	     35.47477228	      0.00000000	      0.00000000
